<svg xmlns="http://www.w3.org/2000/svg" width="25.906" height="26" viewBox="0 0 25.906 26">
  <metadata><?xpacket begin="﻿" id="W5M0MpCehiHzreSzNTczkc9d"?>
<x:xmpmeta xmlns:x="adobe:ns:meta/" x:xmptk="Adobe XMP Core 5.6-c142 79.160924, 2017/07/13-01:06:39        ">
   <rdf:RDF xmlns:rdf="http://www.w3.org/1999/02/22-rdf-syntax-ns#">
      <rdf:Description rdf:about=""/>
   </rdf:RDF>
</x:xmpmeta>
                                                                                                    
                                                                                                    
                                                                                                    
                                                                                                    
                                                                                                    
                                                                                                    
                                                                                                    
                                                                                                    
                                                                                                    
                                                                                                    
                                                                                                    
                                                                                                    
                                                                                                    
                                                                                                    
                                                                                                    
                                                                                                    
                                                                                                    
                                                                                                    
                                                                                                    
                                                                                                    
                           
<?xpacket end="w"?></metadata>
<defs>
    <style>
      .cls-1 {
        fill: #910013;
        fill-rule: evenodd;
      }
    </style>
  </defs>
  <path id="Check" class="cls-1" d="M103.329,1529H103.3c-0.534.39-1.067,0.78-1.6,1.18-1.039.76-2.021,1.63-3.015,2.45a68.744,68.744,0,0,0-7.974,8.1,38.148,38.148,0,0,0-2.559,3.17,8.393,8.393,0,0,0-1,1.34q-3.16-2.865-6.317-5.72H80.821c-0.905.84-1.81,1.69-2.715,2.54a1.378,1.378,0,0,0,.543.79c0.649,0.77,1.3,1.53,1.944,2.29q4.174,4.935,8.346,9.86c0.265-.7.533-1.41,0.8-2.11a41.708,41.708,0,0,1,1.986-4.26,104.4,104.4,0,0,1,5.531-9.31c0.765-1.17,1.657-2.23,2.443-3.37a41.369,41.369,0,0,1,2.7-3.35,17.625,17.625,0,0,1,1.6-1.79A10.5,10.5,0,0,0,103.329,1529Z" transform="translate(-78.094 -1529)"/>
</svg>
